<svg width="640" height="468" viewBox="0 0 640 468" fill="none" xmlns="http://www.w3.org/2000/svg">
<g clip-path="url(#clip0_22_3)">
<rect width="640" height="468" fill="white"/>
<g filter="url(#filter0_d_22_3)">
<rect width="1440" height="803" fill="#081C42"/>
</g>
<path d="M185 217.601L238.571 223.01L292.143 280.353L238.571 276.105L185 217.601Z" fill="#417FDB"/>
<path d="M238.571 276.105L327.857 191.152L381.429 196.816L292.143 280.353L238.571 276.105Z" fill="#343ACE" fill-opacity="0.93"/>
<path d="M327.857 191.152L381.429 196.816L435 249.203L381.429 243.54L327.857 191.152Z" fill="#417FDB" fill-opacity="0.84"/>
<path d="M292.143 328.336L381.429 243.54L435 249.203L345.714 334L292.143 328.336Z" fill="#343ACE"/>
<path d="M185 218.054L274.286 133L327.857 138.664L238.572 223.46L185 218.054Z" fill="#343ACE"/>
<path d="M185 217.601L238.571 223.01L292.143 280.353L238.571 276.105L185 217.601Z" fill="#F9FBFF" fill-opacity="0.15"/>
<path d="M238.571 276.105L327.857 191.152L381.429 196.816L292.143 280.353L238.571 276.105Z" fill="#FDFDFD" fill-opacity="0.15"/>
<path d="M327.857 191.152L381.429 196.816L435 249.203L381.429 243.54L327.857 191.152Z" fill="#FEFEFE" fill-opacity="0.15"/>
<path d="M292.143 328.336L381.429 243.54L435 249.203L345.714 334L292.143 328.336Z" fill="white" fill-opacity="0.15"/>
<path d="M185 218.054L274.286 133L327.857 138.664L238.572 223.46L185 218.054Z" fill="white" fill-opacity="0.15"/>
<path d="M293.188 184.653C292.733 180.619 290.858 177.494 287.562 175.278C284.267 173.034 280.119 171.912 275.119 171.912C271.54 171.912 268.443 172.48 265.83 173.616C263.216 174.724 261.185 176.259 259.736 178.219C258.315 180.151 257.605 182.352 257.605 184.824C257.605 186.898 258.088 188.687 259.054 190.193C260.048 191.699 261.341 192.963 262.932 193.986C264.551 194.98 266.284 195.818 268.131 196.5C269.977 197.153 271.753 197.693 273.457 198.119L281.98 200.335C284.764 201.017 287.619 201.94 290.545 203.105C293.472 204.27 296.185 205.804 298.685 207.707C301.185 209.611 303.202 211.969 304.736 214.781C306.298 217.594 307.08 220.96 307.08 224.881C307.08 229.824 305.801 234.213 303.244 238.048C300.716 241.884 297.037 244.909 292.207 247.125C287.406 249.341 281.597 250.449 274.778 250.449C268.244 250.449 262.591 249.412 257.818 247.338C253.045 245.264 249.31 242.324 246.611 238.517C243.912 234.682 242.42 230.136 242.136 224.881H255.347C255.602 228.034 256.625 230.662 258.415 232.764C260.233 234.838 262.548 236.386 265.361 237.409C268.202 238.403 271.312 238.901 274.693 238.901C278.415 238.901 281.724 238.318 284.622 237.153C287.548 235.96 289.849 234.312 291.526 232.21C293.202 230.08 294.04 227.594 294.04 224.753C294.04 222.168 293.301 220.051 291.824 218.403C290.375 216.756 288.401 215.392 285.901 214.312C283.429 213.233 280.631 212.281 277.506 211.457L267.193 208.645C260.205 206.741 254.665 203.943 250.574 200.25C246.511 196.557 244.48 191.67 244.48 185.591C244.48 180.562 245.844 176.173 248.571 172.423C251.298 168.673 254.991 165.761 259.651 163.688C264.31 161.585 269.565 160.534 275.418 160.534C281.327 160.534 286.54 161.571 291.057 163.645C295.602 165.719 299.182 168.574 301.795 172.21C304.409 175.818 305.773 179.966 305.886 184.653H293.188ZM395.3 190.108H382.005C381.494 187.267 380.542 184.767 379.15 182.608C377.758 180.449 376.053 178.616 374.036 177.111C372.019 175.605 369.761 174.469 367.261 173.702C364.789 172.935 362.161 172.551 359.377 172.551C354.349 172.551 349.846 173.815 345.869 176.344C341.92 178.872 338.795 182.58 336.494 187.466C334.221 192.352 333.085 198.318 333.085 205.364C333.085 212.466 334.221 218.46 336.494 223.347C338.795 228.233 341.934 231.926 345.911 234.426C349.888 236.926 354.363 238.176 359.335 238.176C362.09 238.176 364.704 237.807 367.175 237.068C369.675 236.301 371.934 235.179 373.951 233.702C375.968 232.224 377.673 230.42 379.065 228.29C380.485 226.131 381.465 223.659 382.005 220.875L395.3 220.918C394.59 225.207 393.212 229.156 391.167 232.764C389.15 236.344 386.55 239.44 383.369 242.054C380.215 244.639 376.607 246.642 372.545 248.062C368.482 249.483 364.05 250.193 359.249 250.193C351.692 250.193 344.96 248.403 339.05 244.824C333.141 241.216 328.482 236.06 325.073 229.355C321.692 222.651 320.002 214.653 320.002 205.364C320.002 196.045 321.707 188.048 325.116 181.372C328.525 174.668 333.184 169.526 339.093 165.946C345.002 162.338 351.721 160.534 359.249 160.534C363.88 160.534 368.198 161.202 372.204 162.537C376.238 163.844 379.86 165.776 383.07 168.332C386.281 170.861 388.937 173.957 391.039 177.622C393.141 181.259 394.562 185.42 395.3 190.108Z" fill="#F1F1F1" fill-opacity="0.95"/>
<path d="M250 263L267 263" stroke="#F5F5F5"/>
<path d="M366 263L384 263" stroke="#F5F5F5"/>
<path d="M280.625 260.42C280.564 259.883 280.314 259.466 279.875 259.17C279.436 258.871 278.883 258.722 278.216 258.722C277.739 258.722 277.326 258.797 276.977 258.949C276.629 259.097 276.358 259.301 276.165 259.562C275.975 259.82 275.881 260.114 275.881 260.443C275.881 260.72 275.945 260.958 276.074 261.159C276.206 261.36 276.379 261.528 276.591 261.665C276.807 261.797 277.038 261.909 277.284 262C277.53 262.087 277.767 262.159 277.994 262.216L279.131 262.511C279.502 262.602 279.883 262.725 280.273 262.881C280.663 263.036 281.025 263.241 281.358 263.494C281.691 263.748 281.96 264.062 282.165 264.438C282.373 264.812 282.477 265.261 282.477 265.784C282.477 266.443 282.307 267.028 281.966 267.54C281.629 268.051 281.138 268.455 280.494 268.75C279.854 269.045 279.08 269.193 278.17 269.193C277.299 269.193 276.545 269.055 275.909 268.778C275.273 268.502 274.775 268.11 274.415 267.602C274.055 267.091 273.856 266.485 273.818 265.784H275.58C275.614 266.205 275.75 266.555 275.989 266.835C276.231 267.112 276.54 267.318 276.915 267.455C277.294 267.587 277.708 267.653 278.159 267.653C278.655 267.653 279.097 267.576 279.483 267.42C279.873 267.261 280.18 267.042 280.403 266.761C280.627 266.477 280.739 266.146 280.739 265.767C280.739 265.422 280.64 265.14 280.443 264.92C280.25 264.701 279.987 264.519 279.653 264.375C279.324 264.231 278.951 264.104 278.534 263.994L277.159 263.619C276.227 263.366 275.489 262.992 274.943 262.5C274.402 262.008 274.131 261.356 274.131 260.545C274.131 259.875 274.313 259.29 274.676 258.79C275.04 258.29 275.532 257.902 276.153 257.625C276.775 257.345 277.475 257.205 278.256 257.205C279.044 257.205 279.739 257.343 280.341 257.619C280.947 257.896 281.424 258.277 281.773 258.761C282.121 259.242 282.303 259.795 282.318 260.42H280.625ZM284.575 269V257.364H286.331V262.42H292.132V257.364H293.893V269H292.132V263.926H286.331V269H284.575ZM296.45 269V257.364H303.746V258.875H298.206V262.42H303.365V263.926H298.206V267.489H303.814V269H296.45ZM315.756 261.148H313.983C313.915 260.769 313.788 260.436 313.602 260.148C313.417 259.86 313.189 259.616 312.92 259.415C312.652 259.214 312.35 259.062 312.017 258.96C311.688 258.858 311.337 258.807 310.966 258.807C310.295 258.807 309.695 258.975 309.165 259.312C308.638 259.65 308.222 260.144 307.915 260.795C307.612 261.447 307.46 262.242 307.46 263.182C307.46 264.129 307.612 264.928 307.915 265.58C308.222 266.231 308.64 266.723 309.17 267.057C309.701 267.39 310.297 267.557 310.96 267.557C311.328 267.557 311.676 267.508 312.006 267.409C312.339 267.307 312.64 267.157 312.909 266.96C313.178 266.763 313.405 266.523 313.591 266.239C313.78 265.951 313.911 265.621 313.983 265.25L315.756 265.256C315.661 265.828 315.477 266.354 315.205 266.835C314.936 267.312 314.589 267.725 314.165 268.074C313.744 268.419 313.263 268.686 312.722 268.875C312.18 269.064 311.589 269.159 310.949 269.159C309.941 269.159 309.044 268.92 308.256 268.443C307.468 267.962 306.847 267.275 306.392 266.381C305.941 265.487 305.716 264.42 305.716 263.182C305.716 261.939 305.943 260.873 306.398 259.983C306.852 259.089 307.473 258.403 308.261 257.926C309.049 257.445 309.945 257.205 310.949 257.205C311.566 257.205 312.142 257.294 312.676 257.472C313.214 257.646 313.697 257.903 314.125 258.244C314.553 258.581 314.907 258.994 315.188 259.483C315.468 259.968 315.657 260.523 315.756 261.148ZM327.964 263.182C327.964 264.424 327.737 265.492 327.283 266.386C326.828 267.277 326.205 267.962 325.413 268.443C324.625 268.92 323.73 269.159 322.726 269.159C321.718 269.159 320.819 268.92 320.027 268.443C319.239 267.962 318.618 267.275 318.163 266.381C317.709 265.487 317.482 264.42 317.482 263.182C317.482 261.939 317.709 260.873 318.163 259.983C318.618 259.089 319.239 258.403 320.027 257.926C320.819 257.445 321.718 257.205 322.726 257.205C323.73 257.205 324.625 257.445 325.413 257.926C326.205 258.403 326.828 259.089 327.283 259.983C327.737 260.873 327.964 261.939 327.964 263.182ZM326.226 263.182C326.226 262.235 326.072 261.437 325.766 260.79C325.463 260.138 325.046 259.646 324.516 259.312C323.989 258.975 323.393 258.807 322.726 258.807C322.055 258.807 321.457 258.975 320.93 259.312C320.404 259.646 319.987 260.138 319.68 260.79C319.377 261.437 319.226 262.235 319.226 263.182C319.226 264.129 319.377 264.928 319.68 265.58C319.987 266.227 320.404 266.72 320.93 267.057C321.457 267.39 322.055 267.557 322.726 267.557C323.393 267.557 323.989 267.39 324.516 267.057C325.046 266.72 325.463 266.227 325.766 265.58C326.072 264.928 326.226 264.129 326.226 263.182ZM333.92 269H330.153V257.364H334.04C335.18 257.364 336.159 257.597 336.977 258.062C337.795 258.525 338.422 259.189 338.858 260.057C339.297 260.92 339.517 261.956 339.517 263.165C339.517 264.377 339.295 265.419 338.852 266.29C338.413 267.161 337.777 267.831 336.943 268.301C336.11 268.767 335.102 269 333.92 269ZM331.909 267.466H333.824C334.71 267.466 335.447 267.299 336.034 266.966C336.621 266.629 337.061 266.142 337.352 265.506C337.644 264.866 337.79 264.085 337.79 263.165C337.79 262.252 337.644 261.477 337.352 260.841C337.064 260.205 336.634 259.722 336.062 259.392C335.491 259.062 334.78 258.898 333.932 258.898H331.909V267.466ZM341.7 269V257.364H348.996V258.875H343.456V262.42H348.615V263.926H343.456V267.489H349.064V269H341.7ZM357.688 260.42C357.627 259.883 357.377 259.466 356.938 259.17C356.498 258.871 355.945 258.722 355.278 258.722C354.801 258.722 354.388 258.797 354.04 258.949C353.691 259.097 353.42 259.301 353.227 259.562C353.038 259.82 352.943 260.114 352.943 260.443C352.943 260.72 353.008 260.958 353.136 261.159C353.269 261.36 353.441 261.528 353.653 261.665C353.869 261.797 354.1 261.909 354.347 262C354.593 262.087 354.83 262.159 355.057 262.216L356.193 262.511C356.564 262.602 356.945 262.725 357.335 262.881C357.725 263.036 358.087 263.241 358.42 263.494C358.754 263.748 359.023 264.062 359.227 264.438C359.436 264.812 359.54 265.261 359.54 265.784C359.54 266.443 359.369 267.028 359.028 267.54C358.691 268.051 358.201 268.455 357.557 268.75C356.917 269.045 356.142 269.193 355.233 269.193C354.362 269.193 353.608 269.055 352.972 268.778C352.335 268.502 351.837 268.11 351.477 267.602C351.117 267.091 350.919 266.485 350.881 265.784H352.642C352.676 266.205 352.813 266.555 353.051 266.835C353.294 267.112 353.602 267.318 353.977 267.455C354.356 267.587 354.771 267.653 355.222 267.653C355.718 267.653 356.159 267.576 356.545 267.42C356.936 267.261 357.242 267.042 357.466 266.761C357.689 266.477 357.801 266.146 357.801 265.767C357.801 265.422 357.703 265.14 357.506 264.92C357.313 264.701 357.049 264.519 356.716 264.375C356.386 264.231 356.013 264.104 355.597 263.994L354.222 263.619C353.29 263.366 352.551 262.992 352.006 262.5C351.464 262.008 351.193 261.356 351.193 260.545C351.193 259.875 351.375 259.29 351.739 258.79C352.102 258.29 352.595 257.902 353.216 257.625C353.837 257.345 354.538 257.205 355.318 257.205C356.106 257.205 356.801 257.343 357.403 257.619C358.009 257.896 358.487 258.277 358.835 258.761C359.184 259.242 359.366 259.795 359.381 260.42H357.688Z" fill="#FFFEFE"/>
</g>
<defs>
<filter id="filter0_d_22_3" x="-4" y="0" width="1448" height="811" filterUnits="userSpaceOnUse" color-interpolation-filters="sRGB">
<feFlood flood-opacity="0" result="BackgroundImageFix"/>
<feColorMatrix in="SourceAlpha" type="matrix" values="0 0 0 0 0 0 0 0 0 0 0 0 0 0 0 0 0 0 127 0" result="hardAlpha"/>
<feOffset dy="4"/>
<feGaussianBlur stdDeviation="2"/>
<feComposite in2="hardAlpha" operator="out"/>
<feColorMatrix type="matrix" values="0 0 0 0 0 0 0 0 0 0 0 0 0 0 0 0 0 0 0.25 0"/>
<feBlend mode="normal" in2="BackgroundImageFix" result="effect1_dropShadow_22_3"/>
<feBlend mode="normal" in="SourceGraphic" in2="effect1_dropShadow_22_3" result="shape"/>
</filter>
<clipPath id="clip0_22_3">
<rect width="640" height="468" fill="white"/>
</clipPath>
</defs>
</svg>
